<svg xmlns="http://www.w3.org/2000/svg" viewBox="0 0 64 64" fill="none">
  <!-- Hull -->
  <path d="M12 42 L16 50 Q32 54 48 50 L52 42 Z" fill="#1e3a5f"/>

  <!-- Hull highlight -->
  <path d="M16 50 Q32 54 48 50 L46 52 Q32 56 18 52 Z" fill="#16304f"/>

  <!-- Mast -->
  <line x1="32" y1="42" x2="32" y2="10" stroke="#1e3a5f" stroke-width="2.5" stroke-linecap="round"/>

  <!-- Main sail — left, larger -->
  <path d="M32 12 L32 40 L14 40 Z" fill="#2563eb"/>

  <!-- Jib sail — right, smaller -->
  <path d="M32 17 L32 38 L50 33 Z" fill="#60a5fa"/>

  <!-- Boom -->
  <line x1="32" y1="40" x2="49" y2="44.5" stroke="#1e3a5f" stroke-width="1.5" stroke-linecap="round"/>

  <!-- Water line — subtle waves -->
  <path d="M6 43 Q13 40.5 20 43 Q27 45.5 34 43 Q41 40.5 48 43 Q54 44.5 58 43" stroke="#93c5fd" stroke-width="1.2" stroke-linecap="round" fill="none" opacity="0.6"/>
</svg>
